<?xml version="1.0" encoding="utf-8"?><svg xmlns="http://www.w3.org/2000/svg" xmlns:xlink="http://www.w3.org/1999/xlink"><symbol viewBox="0 0 42 42" id="add"><path d="M42 20H22V0h-2v20H0v2h20v20h2V22h20z"/></symbol><symbol viewBox="0 0 165.7 12" id="arrow-inst"><path d="M0 6h156.9M156.9 12V0l8.8 6z"/></symbol><symbol viewBox="0 0 71.8 12" id="arrow-next"><style>.st0{fill:#1d1d1b}</style><path d="M0 5.5h63v1H0zM63 12V0l8.8 6z"/></symbol><symbol viewBox="-1154 414.9 71.8 12" id="arrow-prev"><style>.st0{fill:#1d1d1b}</style><path d="M-1154 420.9l8.8 6v-5.5h63v-1h-63v-5.5z"/></symbol><symbol viewBox="0 0 12 52" id="arrow-price"><style>.st0{fill:#1d1d1b}</style><path d="M5.5 0h1v43.2h-1zM0 43.2h12L6 52z"/></symbol><symbol viewBox="0 0 64 64" id="back"><path d="M45.539 63.41c.394.394.908.59 1.424.59s1.031-.197 1.424-.59a2.013 2.013 0 0 0 0-2.848L20.059 32.233 48.407 3.886a2.015 2.015 0 0 0-2.849-2.848L15.822 30.773a2.28 2.28 0 0 0-.484.778 2.014 2.014 0 0 0 .465 2.124L45.539 63.41z"/></symbol><symbol viewBox="0 0 473.806 473.806" id="call"><path d="M374.456 293.506c-9.7-10.1-21.4-15.5-33.8-15.5-12.3 0-24.1 5.3-34.2 15.4l-31.6 31.5c-2.6-1.4-5.2-2.7-7.7-4-3.6-1.8-7-3.5-9.9-5.3-29.6-18.8-56.5-43.3-82.3-75-12.5-15.8-20.9-29.1-27-42.6 8.2-7.5 15.8-15.3 23.2-22.8 2.8-2.8 5.6-5.7 8.4-8.5 21-21 21-48.2 0-69.2l-27.3-27.3c-3.1-3.1-6.3-6.3-9.3-9.5-6-6.2-12.3-12.6-18.8-18.6-9.7-9.6-21.3-14.7-33.5-14.7s-24 5.1-34 14.7l-.2.2-34 34.3c-12.8 12.8-20.1 28.4-21.7 46.5-2.4 29.2 6.2 56.4 12.8 74.2 16.2 43.7 40.4 84.2 76.5 127.6 43.8 52.3 96.5 93.6 156.7 122.7 23 10.9 53.7 23.8 88 26 2.1.1 4.3.2 6.3.2 23.1 0 42.5-8.3 57.7-24.8.1-.2.3-.3.4-.5 5.2-6.3 11.2-12 17.5-18.1 4.3-4.1 8.7-8.4 13-12.9 9.9-10.3 15.1-22.3 15.1-34.6 0-12.4-5.3-24.3-15.4-34.3l-54.9-55.1zm35.8 105.3c-.1 0-.1.1 0 0-3.9 4.2-7.9 8-12.2 12.2-6.5 6.2-13.1 12.7-19.3 20-10.1 10.8-22 15.9-37.6 15.9-1.5 0-3.1 0-4.6-.1-29.7-1.9-57.3-13.5-78-23.4-56.6-27.4-106.3-66.3-147.6-115.6-34.1-41.1-56.9-79.1-72-119.9-9.3-24.9-12.7-44.3-11.2-62.6 1-11.7 5.5-21.4 13.8-29.7l34.1-34.1c4.9-4.6 10.1-7.1 15.2-7.1 6.3 0 11.4 3.8 14.6 7l.3.3c6.1 5.7 11.9 11.6 18 17.9 3.1 3.2 6.3 6.4 9.5 9.7l27.3 27.3c10.6 10.6 10.6 20.4 0 31-2.9 2.9-5.7 5.8-8.6 8.6-8.4 8.6-16.4 16.6-25.1 24.4-.2.2-.4.3-.5.5-8.6 8.6-7 17-5.2 22.7l.3.9c7.1 17.2 17.1 33.4 32.3 52.7l.1.1c27.6 34 56.7 60.5 88.8 80.8 4.1 2.6 8.3 4.7 12.3 6.7 3.6 1.8 7 3.5 9.9 5.3.4.2.8.5 1.2.7 3.4 1.7 6.6 2.5 9.9 2.5 8.3 0 13.5-5.2 15.2-6.9l34.2-34.2c3.4-3.4 8.8-7.5 15.1-7.5 6.2 0 11.3 3.9 14.4 7.3l.2.2 55.1 55.1c10.3 10.2 10.3 20.7.1 31.3zm-154.2-286.1c26.2 4.4 50 16.8 69 35.8s31.3 42.8 35.8 69c1.1 6.6 6.8 11.2 13.3 11.2.8 0 1.5-.1 2.3-.2 7.4-1.2 12.3-8.2 11.1-15.6-5.4-31.7-20.4-60.6-43.3-83.5s-51.8-37.9-83.5-43.3c-7.4-1.2-14.3 3.7-15.6 11s3.5 14.4 10.9 15.6zm217.2 96.3c-8.9-52.2-33.5-99.7-71.3-137.5s-85.3-62.4-137.5-71.3c-7.3-1.3-14.2 3.7-15.5 11-1.2 7.4 3.7 14.3 11.1 15.6 46.6 7.9 89.1 30 122.9 63.7 33.8 33.8 55.8 76.3 63.7 122.9 1.1 6.6 6.8 11.2 13.3 11.2.8 0 1.5-.1 2.3-.2 7.3-1.1 12.3-8.1 11-15.4z"/></symbol><symbol viewBox="0 0 64 64" id="cancel"><path d="M28.941 31.786L.613 60.114a2.014 2.014 0 1 0 2.848 2.849l28.541-28.541 28.541 28.541c.394.394.909.59 1.424.59a2.014 2.014 0 0 0 1.424-3.439L35.064 31.786 63.41 3.438A2.014 2.014 0 1 0 60.562.589L32.003 29.15 3.441.59A2.015 2.015 0 0 0 .593 3.439l28.348 28.347z"/></symbol><symbol viewBox="0 0 139.4 44.7" id="dorohovdesign"><path d="M52.2 19.5V8.1H57c3.6 0 6.1 2.1 6.1 5.7 0 3.5-2.6 5.7-6.1 5.7h-4.8zm7.9-5.7c0-1.8-1.1-3.1-3.1-3.1h-1.9v6.2H57c2 0 3.1-1.4 3.1-3.1m4.1 0c0-3.4 2.6-5.9 6.1-5.9 3.5 0 6.1 2.4 6.1 5.9 0 3.5-2.6 5.9-6.1 5.9-3.5 0-6.1-2.4-6.1-5.9m9.2 0c0-1.9-1.2-3.3-3.1-3.3-1.9 0-3.1 1.4-3.1 3.3 0 1.8 1.2 3.3 3.1 3.3 1.9 0 3.1-1.4 3.1-3.3m11 5.7l-1.9-3.8H81v3.8h-2.9V8.1h5.7c2.5 0 3.9 1.7 3.9 3.8 0 2-1.2 3-2.3 3.4l2.3 4.2h-3.3zm.3-7.6c0-.8-.6-1.2-1.4-1.2H81v2.4h2.3c.8 0 1.4-.4 1.4-1.2m4.2 1.9c0-3.4 2.6-5.9 6.1-5.9 3.5 0 6.1 2.4 6.1 5.9 0 3.5-2.6 5.9-6.1 5.9-3.5 0-6.1-2.4-6.1-5.9m9.1 0c0-1.9-1.2-3.3-3.1-3.3-1.9 0-3.1 1.4-3.1 3.3 0 1.8 1.2 3.3 3.1 3.3 1.9 0 3.1-1.4 3.1-3.3m12.4 5.7v-4.6h-4.7v4.6h-3V8.1h3v4.3h4.7V8.1h2.9v11.4zm4.6-5.7c0-3.4 2.6-5.9 6.1-5.9 3.5 0 6.1 2.4 6.1 5.9 0 3.5-2.6 5.9-6.1 5.9-3.5 0-6.1-2.4-6.1-5.9m9.2 0c0-1.9-1.2-3.3-3.1-3.3-1.9 0-3.1 1.4-3.1 3.3 0 1.8 1.2 3.3 3.1 3.3 1.9 0 3.1-1.4 3.1-3.3m7.3 5.7l-4.3-11.4h3.3l2.8 8.2 2.8-8.2h3.3l-4.2 11.4zm-79.3 17V25.1H57c3.6 0 6.1 2.1 6.1 5.7 0 3.5-2.6 5.7-6.1 5.7h-4.8zm7.9-5.7c0-1.8-1.1-3.1-3.1-3.1h-1.9v6.2H57c2 0 3.1-1.4 3.1-3.1m4.7 5.7V25.1h8.3v2.6h-5.3v1.8H73V32h-5.2v1.9h5.3v2.6zm9.6-1.6l1.5-2.2c.8.8 2.1 1.5 3.6 1.5 1 0 1.6-.4 1.6-.9 0-1.5-6.4-.3-6.4-4.7 0-1.9 1.6-3.6 4.5-3.6 1.8 0 3.4.5 4.6 1.6l-1.6 2.1c-1-.8-2.2-1.2-3.3-1.2-.8 0-1.2.3-1.2.8 0 1.4 6.4.4 6.4 4.6 0 2.3-1.7 3.8-4.7 3.8-2.2 0-3.8-.7-5-1.8m11.5-9.8h2.9v11.3h-2.9zm4.7 5.7c0-3.6 2.8-5.9 6.1-5.9 2.5 0 4.1 1.3 4.8 2.8L99.1 29c-.4-.7-1.3-1.4-2.4-1.4-1.9 0-3.2 1.4-3.2 3.3s1.3 3.3 3.2 3.3c.8 0 1.7-.3 2.1-.7v-.9h-2.6V30h5.5v4.5c-1.2 1.3-2.9 2.2-5 2.2-3.4 0-6.1-2.3-6.1-5.9m20.9 5.7l-4.8-6.6v6.6h-2.9V25.1h3l4.6 6.3v-6.3h2.9v11.4zM17.7 0H0v44.7h17.8c15 0 24.6-8.8 24.6-22.4C42.4 8.7 32.7 0 17.7 0m-.4 35.7h-8V9.5h8c9.3 0 15.7 3.7 15.7 12.7.1 7.5-5.8 13.5-15.7 13.5"/><path d="M19.1 17H17v10.6h2c4 0 6.4-2.4 6.4-5.4 0-3.7-2.6-5.2-6.3-5.2"/></symbol><symbol viewBox="0 0 1024 1024" id="inst"><g clip-rule="evenodd" fill-rule="evenodd"><path d="M512.305.122c70.856 0 141.717-.328 212.571.094 66.662.398 129.269 15.6 183.515 56.125 70.84 52.923 107.091 125.214 113.838 212.445 2.376 30.7 1.637 61.667 1.677 92.512.161 119.619.072 239.239.059 358.86-.005 48.856-6.799 96.557-27.473 141.232-41.938 90.623-115.091 140.165-211.608 157.334-20.125 3.579-40.886 4.916-61.359 4.977-141.333.417-282.669.321-424.003.174-73.495-.075-140.713-19.483-197.994-67.166-58.197-48.439-88.907-111.793-98.46-186.071C1.42 757.827.411 744.833.399 731.924.261 583.352-.636 434.771.82 286.214c.796-81.166 27.822-153.13 88.244-209.835 50.119-47.032 111.04-71.607 178.739-74.012 81.404-2.892 162.991-.685 244.499-.685.001-.521.001-1.041.003-1.56zm-.8 929.247c68.18 0 136.358.274 204.534-.188 17.83-.121 35.919-1.007 53.414-4.171 66.827-12.081 117.634-45.6 144.26-110.67 13.528-33.055 17.946-68.524 18.522-102.876 2.237-133.271.976-266.602.819-399.911-.018-14.442-.174-29.045-2.217-43.295-9.163-63.988-36.903-116.435-95.792-148.329-32.869-17.801-68.551-24.522-105.64-24.534-142.831-.042-285.662-.084-428.492.087-12.908.016-25.93.73-38.702 2.525-72.746 10.214-126.329 46.066-153.145 116.6-10.822 28.463-14.28 58.288-14.286 88.569-.021 139.403-.155 278.803.183 418.208.041 17.055 1.313 34.355 4.366 51.114 13.543 74.355 55.004 125.461 128.843 146.011 24.606 6.845 50.909 9.868 76.522 10.384 68.914 1.384 137.871.471 206.811.476z"/><path d="M775.903 510.369c-.064 145.777-119.005 264.347-264.821 263.991-145.871-.353-263.345-118.096-263.43-264.029-.085-145.771 118.679-264.351 264.603-264.192 144.666.156 263.713 119.466 263.648 264.23zM511.878 679.188c93.007.071 169.609-76.475 169.448-169.325-.161-92.206-76.568-168.757-168.818-169.132-92.873-.377-169.438 75.935-169.635 169.074-.196 93.272 75.669 169.309 169.005 169.383zm273.815-379.85c-33.019-.295-59.047-26.717-58.941-59.832.104-33.491 26.785-59.75 60.471-59.52 32.644.226 59.246 27.168 59.147 59.904-.1 33.2-27.196 59.747-60.677 59.448z"/></g></symbol><symbol viewBox="0 0 445 495" id="logo-full"><path fill-rule="evenodd" clip-rule="evenodd" fill="#962253" d="M169.218 229.07c5.575 0 10.095 4.499 10.095 10.047s-4.52 10.047-10.095 10.047c-5.576 0-10.095-4.498-10.095-10.047s4.519-10.047 10.095-10.047m19.764-34.559c5.576 0 10.095 4.499 10.095 10.047s-4.519 10.047-10.095 10.047c-5.575 0-10.095-4.498-10.095-10.047s4.52-10.047 10.095-10.047zm30.449 27.647c5.576 0 10.095 4.499 10.095 10.047 0 5.549-4.519 10.047-10.095 10.047-5.575 0-10.095-4.498-10.095-10.047 0-5.548 4.519-10.047 10.095-10.047zm30.448 27.647c5.576 0 10.095 4.499 10.095 10.047s-4.519 10.047-10.095 10.047c-5.575 0-10.094-4.498-10.094-10.047s4.519-10.047 10.094-10.047zm-48.611 16.482c5.576 0 10.096 4.499 10.096 10.047s-4.52 10.047-10.096 10.047c-5.574 0-10.094-4.499-10.094-10.047s4.52-10.047 10.094-10.047zm95.137-30.527c0 40.278-34.074 72.407-73.903 72.407-20.126 0-38.369-7.886-51.696-20.67a10.003 10.003 0 0 0 3.32-7.449c0-5.548-4.521-10.047-10.095-10.047-2.104 0-4.059.641-5.676 1.738a70.935 70.935 0 0 1-9.756-35.979c0-24.275 11.366-45.081 30.038-58.275 22.535 19.379 68.161 16.447 87.906.557 9.748 4.815 29.862 29.491 29.862 57.718z"/><path fill-rule="evenodd" clip-rule="evenodd" fill="#2B2A29" d="M229.969 173.114c-2.671-48.382-1.277-105.448-5.551-151.704 0 0 .26-2.147 1.217.21 5.009 47.709 2.165 109.447 15.677 149.144-2.345 1.515-7.147 2.455-11.343 2.35m-47.867-6.55C209.025 132.052 215.116 48.336 215.33 0c4.755 5.505 7.363 10.477 14.095 14.34 4.737 48.028 6.444 115.52 33.477 152.284-17.362 16.216-61.302 17.22-80.8-.06z"/><path fill-rule="evenodd" clip-rule="evenodd" fill="#962253" d="M42.498 404.988c4.848 0 8.78 3.897 8.78 8.704 0 4.808-3.932 8.704-8.78 8.704-4.849 0-8.781-3.896-8.781-8.704 0-4.806 3.932-8.704 8.781-8.704"/><path fill-rule="evenodd" clip-rule="evenodd" fill="#2B2A29" d="M408.658 439.573c0 2.302-1.157 3.453-3.471 3.453-2.262 0-3.394-1.151-3.394-3.453v-92.666c0-.127.091-1.525.179-1.501.174-.692.427-1.146.834-1.714.985-.979 2.1-1.246 3.469-1.246h12.214c2.864 0 5.438.159 7.719.476 2.319.321 4.33.816 6.029 1.485l.001-.002c4.91 1.883 8.446 4.977 10.606 9.276l.019.038a20.738 20.738 0 0 1 1.599 4.667c.351 1.629.526 3.327.526 5.092 0 1.865-.182 3.652-.545 5.361a21.287 21.287 0 0 1-1.657 4.859 17.995 17.995 0 0 1-2.779 4.193 17.523 17.523 0 0 1-3.841 3.211h-.001a22.263 22.263 0 0 1-4.511 2.202c-1.617.58-3.32.997-5.105 1.252h-.04a75.76 75.76 0 0 1-2.578.28 82.269 82.269 0 0 1-5.584.319c-1.186.032-2.174.049-2.969.049-2.179 0-4.419-.043-6.72-.128v54.497zm0-61.229c.623.023 1.236.044 1.839.061 1.207.031 2.653.048 4.336.048 3.207 0 5.933-.103 8.175-.31 2.179-.199 3.978-.497 5.395-.891 3.265-1.018 5.681-2.644 7.253-4.877 1.595-2.269 2.393-5.261 2.393-8.975 0-2.397-.382-4.471-1.144-6.214-.735-1.685-1.847-3.108-3.331-4.271l-.06-.049a13.74 13.74 0 0 0-3.092-1.948 15.536 15.536 0 0 0-3.66-1.145 44.238 44.238 0 0 0-3.86-.429 56.371 56.371 0 0 0-2.138-.116 68.677 68.677 0 0 0-2.274-.029h-9.831v29.145zm-44.953-36.672c2.671 0 5.269.362 7.793 1.086v.01a29.629 29.629 0 0 1 7.306 3.229v.01c4.764 2.937 8.368 6.808 10.812 11.614l-.004.002a29.11 29.11 0 0 1 2.419 6.426c.546 2.229.818 4.492.818 6.786 0 1.863-.191 3.734-.574 5.612a29.075 29.075 0 0 1-1.686 5.458 29.451 29.451 0 0 1-2.717 5.052 29.071 29.071 0 0 1-3.624 4.401 28.978 28.978 0 0 1-9.586 6.347l.001.003a29.526 29.526 0 0 1-11.269 2.211 29.87 29.87 0 0 1-5.747-.553 29.6 29.6 0 0 1-5.513-1.658 29.128 29.128 0 0 1-5.113-2.694 29.29 29.29 0 0 1-4.481-3.655l.006-.005a28.24 28.24 0 0 1-3.55-4.202 28.155 28.155 0 0 1-2.669-4.829 29.176 29.176 0 0 1-2.197-8.189h-4.763v21.479c0 2.355-1.157 3.532-3.471 3.532-1.064 0-1.925-.384-2.574-1.149-.545-.641-.818-1.435-.818-2.383V345.9c0-.959.296-1.761.888-2.402.646-.701 1.48-1.052 2.505-1.052 2.313 0 3.471 1.151 3.471 3.454v21.479h4.767a28.188 28.188 0 0 1 1.034-4.941 29.168 29.168 0 0 1 3.117-6.864l.004.003a28.484 28.484 0 0 1 5.051-6.149c1.946-1.781 4.155-3.294 6.623-4.536l.002.003a28.957 28.957 0 0 1 6.593-2.418 31.32 31.32 0 0 1 7.146-.805zm-.622 6.754c-1.439 0-2.837.14-4.191.415-1.374.28-2.752.709-4.134 1.285a22.344 22.344 0 0 0-3.854 2.057 22.652 22.652 0 0 0-3.377 2.771v.011a22.04 22.04 0 0 0-4.862 7.264 22.298 22.298 0 0 0-1.706 8.605c0 2.934.568 5.776 1.706 8.528a22.51 22.51 0 0 0 2.077 3.893 21.886 21.886 0 0 0 2.775 3.37h.01c2.21 2.2 4.623 3.839 7.24 4.917 2.623 1.081 5.499 1.623 8.626 1.623 3.128 0 6.004-.541 8.628-1.623 2.616-1.078 5.029-2.717 7.238-4.917l.005.005a23.46 23.46 0 0 0 2.78-3.414 22.988 22.988 0 0 0 2.077-3.863 21.906 21.906 0 0 0 1.28-4.162c.285-1.417.428-2.87.428-4.356 0-1.495-.143-2.961-.428-4.396a23.158 23.158 0 0 0-1.29-4.259 21.1 21.1 0 0 0-2.058-3.854 19.725 19.725 0 0 0-2.745-3.244l-.029-.03c-2.28-2.222-4.765-3.884-7.453-4.984-2.672-1.094-5.588-1.642-8.743-1.642zm-51.832 44.609c.545.31.976.712 1.29 1.206l-.007.005c.36.563.54 1.174.54 1.83 0 .975-.319 1.779-.957 2.414l-.01.011c-.639.634-1.447.953-2.426.953h-.377l-.416-.139-.467-.155-.233-.078-.152-.079-35.26-18.563v15.172c0 2.355-1.157 3.532-3.471 3.532-1.066 0-1.926-.384-2.574-1.149-.545-.641-.819-1.435-.819-2.383l-.479-73.085c0-.959.297-1.761.888-2.403.646-.7 1.48-1.051 2.506-1.051 2.313 0 3.471 1.151 3.471 3.454l.479 46.448 34.69-25.86a3.76 3.76 0 0 1 .943-.519 3.39 3.39 0 0 1 1.193-.227c1.005 0 1.824.349 2.456 1.042.571.625.859 1.404.859 2.335 0 .521-.143 1.035-.425 1.542v.011c-.18.322-.42.634-.718.93l-.152.149-.115.087-35.293 26.257 34.956 18.273.08.04zm-89.467-37.882l-34.701 42.966-.03.03a3.923 3.923 0 0 1-1.142.949 3.42 3.42 0 0 1-1.656.432c-.206 0-.403-.014-.594-.042l-1.087-.352a3.256 3.256 0 0 1-.942-.766c-.565-.654-.848-1.472-.848-2.449V345.9c0-2.303 1.157-3.454 3.471-3.454 2.262 0 3.393 1.151 3.393 3.454v40.617l34.656-42.896c.267-.416.598-.762.991-1.036l-.004-.005c2.723-1.902 5.355-.379 5.355 3.088l-.479 73.215c0 .946-.274 1.74-.819 2.382-.649.767-1.508 1.149-2.574 1.149-1.047 0-1.901-.357-2.563-1.07-.604-.652-.907-1.473-.907-2.461l.48-63.73zm-112.263 41.424l-.015-.028.008.032.007-.004zm-24.813-54.742l.233-.455.233.455a3.288 3.288 0 0 1 1.927.778h.01c.443.367.797.855 1.059 1.459l16.859 32.753h19.529V345.9c0-2.303 1.157-3.454 3.471-3.454 2.261 0 3.393 1.151 3.393 3.454v30.925h29.546V345.9c0-.959.296-1.761.888-2.402.646-.701 1.48-1.052 2.504-1.052 2.314 0 3.471 1.151 3.471 3.454v49.789c0 2.302-1.157 3.454-3.471 3.454-2.26 0-3.392-1.152-3.392-3.454v-12.11h-29.546v12.11c0 .952-.297 1.751-.888 2.394v.01c-.646.699-1.48 1.051-2.505 1.051-2.314 0-3.471-1.152-3.471-3.454v-12.11h-16.053l5.525 10.734.02.02c.091.181.173.382.246.597.118.353.178.685.178.992 0 .974-.321 1.778-.958 2.414l-.01.01c-.639.635-1.447.952-2.425.952-.66 0-1.273-.179-1.839-.537l-.005.007a3.613 3.613 0 0 1-1.211-1.293l-.049-.089-7.148-13.807H68.977l-7.116 13.743a3.392 3.392 0 0 1-1.146 1.377 3.278 3.278 0 0 1-1.913.599c-.957 0-1.759-.294-2.405-.883h-.01c-.704-.643-1.056-1.474-1.056-2.493 0-.308.059-.64.178-.992.072-.215.155-.416.246-.597l.03-.04 5.613-10.714h-.729c-.978 0-1.786-.317-2.425-.951l-.01-.01c-.637-.637-.958-1.441-.958-2.415 0-2.25 1.131-3.378 3.393-3.378h4.063l16.986-32.773a3.827 3.827 0 0 1 1.055-1.438h.01a3.272 3.272 0 0 1 1.925-.78zm.233 10.601l-12.516 24.39h25.032l-12.516-24.39zM6.878 418.873c0 2.303-1.157 3.454-3.471 3.454-2.261 0-3.392-1.151-3.392-3.454v-73.359c0-.932.236-1.719.709-2.36a3.23 3.23 0 0 1 1.08-.954l1.118-.343c.156-.02.317-.029.485-.029 1.084 0 2.036.478 2.856 1.43l.089.118 17.269 22.663 17.052-22.652.099-.129c.901-1.045 1.915-1.52 3.29-1.413 2.162.481 2.959 1.207 2.959 3.67v50.176c0 .952-.297 1.751-.888 2.394v.01c-.646.699-1.481 1.051-2.505 1.051-2.313 0-3.47-1.152-3.47-3.454v-40.316L26.59 373.281l-.005-.004c-.339.449-.697.8-1.076 1.051l-.005-.006c-.589.391-1.213.585-1.87.585-.674 0-1.307-.212-1.895-.638a4.718 4.718 0 0 1-.969-.98l-.003.002-13.889-18.023v63.605zm240.017-90.596c2.023 0 3.677 1.646 3.677 3.659v15.328c0 2.013-1.653 3.658-3.676 3.658h-.001c-2.021 0-3.675-1.646-3.675-3.658v-15.328c0-2.012 1.653-3.659 3.675-3.659"/><path fill="#962253" d="M434.581 481.389c-.038.153-.268.114-.229-.076.268-1.602.384-4.004.384-9.112v-8.084h-3.065v21.353h3.908l6.512-17.233c.077-.153.268-.076.229.075-.19 1.755-.383 3.813-.383 8.923v8.235H445v-21.353h-3.868l-6.551 17.272zm-23.485 0c-.039.153-.268.114-.23-.076.268-1.602.384-4.004.384-9.112v-8.084h-3.065v21.353h3.908l6.512-17.233c.077-.153.269-.076.23.075-.191 1.755-.384 3.813-.384 8.923v8.235h3.064v-21.353h-3.869l-6.55 17.272zm-22.298-11.858c.46-1.945 1.877-3.241 3.524-3.241 1.226 0 2.03.382 2.566 1.296.881 1.488 1.072 4.386 1.072 6.482 0 2.478-.268 5.948-1.264 7.32-.651.916-1.763 1.678-3.371 1.755-1.264.075-1.762 0-2.835-.306v-9.608c.001-1.41.115-2.897.308-3.698zm-3.333 1.639V495h3.064l-.038-9.569c.843.229 1.494.305 2.797.305 2.146 0 4.75-.915 6.129-3.012 1.111-1.678 1.725-5.262 1.725-8.693.038-3.431-.307-5.986-1.341-7.74-1.303-2.174-3.026-2.555-5.172-2.555-2.222 0-3.946 1.335-4.367 2.479-.115.229-.345.19-.383 0-.269-.991-.958-1.754-1.571-2.249l-2.375 1.906c1.379 1.258 1.494 2.706 1.532 5.298zm-15.441 14.299h3.065V466.9h4.749v-2.784h-12.564v2.784h4.75v18.569zm-13.449-6.749c.115 1.183.039 2.631-.459 3.317-.651.915-1.647 1.182-2.566 1.182a3.206 3.206 0 0 1-2.605-1.372c-.997-1.373-1.111-4.994-1.111-7.092s.114-5.834 1.111-7.207c.65-.914 1.647-1.295 2.605-1.295.919 0 1.8.151 2.45 1.066.46.61.575 1.717.46 2.974l3.104.268c.269-1.64.115-3.279-.537-4.271-1.379-2.097-3.753-2.555-5.516-2.555-1.724 0-4.1.458-5.479 2.555-1.111 1.678-1.417 5.071-1.417 8.503s.383 6.71 1.493 8.388c1.379 2.098 3.679 2.669 5.402 2.669 1.763 0 4.061-.571 5.439-2.669.69-1.067.919-2.707.652-4.651l-3.026.19zm-31.682 14.908c.843.878 1.915 1.372 3.294 1.372 2.49 0 4.062-1.524 5.172-5.49l7.048-25.394h-3.179l-3.908 14.681c-.19.876-.383 1.639-.383 1.639-.038.229-.191.268-.268 0-.153-1.258-.345-2.021-.729-3.66l-3.563-12.659h-3.295l6.513 21.276-.268 1.144c-1.111 4.729-1.916 5.681-3.142 5.681-.536.076-1.188-.267-1.724-.838l-1.568 2.248zm-15.328-27.071h4.636v16.091h-7.162c2.028-2.098 2.183-8.618 2.526-16.091zm-7.353 23.449h2.834v-4.537h11.837v4.537h2.835v-7.358h-2.452v-18.531h-10.648c-.038 8.617-.076 17.083-3.142 18.531h-1.264v7.358zm-10.538-4.537h3.064v-21.353h-3.064v8.656h-6.818v-8.656h-3.066v21.353h3.066v-9.913h6.818v9.913zm-30.458-4.08c-.038.153-.268.114-.229-.076.268-1.602.383-4.004.383-9.112v-8.084h-3.064v21.353h3.907l6.513-17.233c.077-.153.269-.076.229.075-.19 1.755-.383 3.813-.383 8.923v8.235h3.064v-21.353h-3.869l-6.551 17.272zm-23.486 0c-.038.153-.269.114-.229-.076.268-1.602.383-4.004.383-9.112v-8.084h-3.064v21.353h3.907l6.512-17.233c.077-.153.269-.076.23.075-.192 1.755-.384 3.813-.384 8.923v8.235h3.065v-21.353h-3.87l-6.55 17.272zm3.832-21.618c-1.61 0-2.336-1.372-2.336-2.897l-2.452.381c0 3.127 2.26 4.386 4.788 4.386s4.788-1.259 4.788-4.386l-2.452-.381c-.001 1.524-.728 2.897-2.336 2.897zm-26.283 15.06c0-2.098 0-5.91.996-7.283.651-.914 1.724-1.295 2.682-1.295.919 0 1.991.381 2.644 1.295.995 1.373.995 5.186.995 7.283 0 2.021 0 5.643-.995 7.016a3.332 3.332 0 0 1-2.644 1.372c-.958 0-2.031-.457-2.682-1.372-.996-1.335-.996-4.919-.996-7.016zm10.535-.038c0-3.432-.192-6.825-1.303-8.503-1.38-2.097-3.83-2.555-5.593-2.555-1.724 0-4.176.458-5.555 2.555-1.111 1.678-1.302 5.071-1.302 8.503s.268 6.71 1.378 8.388c1.379 2.098 3.754 2.669 5.479 2.669 1.763 0 4.137-.571 5.516-2.669 1.112-1.678 1.38-4.956 1.38-8.388zm-29.04-8.54c2.336 0 3.217 1.563 3.217 2.821 0 1.601-.459 3.621-3.217 3.621h-2.605v-6.329a35.936 35.936 0 0 1 2.605-.113zm0 9.036c2.873 0 4.137 1.22 4.137 3.736 0 2.63-1.686 4.155-4.329 4.231-.92.038-1.686 0-2.414-.113v-7.854h2.606zm-5.67 10.18c1.763.267 3.525.381 5.631.381 4.827 0 7.47-2.744 7.47-6.863 0-2.668-1.532-4.46-3.831-4.956-.153-.038-.153-.305 0-.343 1.762-.725 2.72-2.288 2.72-4.767 0-3.698-3.333-5.186-6.397-5.186-1.992 0-5.593.381-5.593.381v21.353zm-17.815-17.921c.651-.914 1.647-1.295 2.605-1.295.92 0 1.916.381 2.567 1.295.651.878.881 2.556.651 4.385h-6.857c.114-1.715.421-3.507 1.034-4.385zm8.772 7.054c.613-3.393.345-6.634-.767-8.312-1.378-2.097-3.677-2.555-5.439-2.555-1.724 0-4.099.458-5.479 2.555-1.111 1.678-1.417 5.071-1.417 8.503s.383 6.71 1.494 8.388c1.379 2.098 3.678 2.669 5.402 2.669 1.762 0 4.061-.571 5.439-2.669.689-1.067.919-2.707.651-4.651l-2.949.19c.114 1.183-.039 2.517-.537 3.203-.651.915-1.647 1.296-2.567 1.296a3.208 3.208 0 0 1-2.605-1.372c-.996-1.373-1.111-4.994-1.111-7.092v-.153h9.885zm-27.24 10.867h3.064V466.9h4.75v-2.784h-12.564v2.784h4.75v18.569zm-19.808 0h3.065v-18.53h7.393v-2.822h-10.458v21.352zm-19.539-10.638c0-2.098 0-5.91.997-7.283.651-.914 1.724-1.295 2.681-1.295.919 0 1.992.381 2.644 1.295.996 1.373.996 5.186.996 7.283 0 2.021 0 5.643-.996 7.016a3.33 3.33 0 0 1-2.644 1.372c-.957 0-2.03-.457-2.681-1.372-.997-1.335-.997-4.919-.997-7.016zm10.535-.038c0-3.432-.191-6.825-1.302-8.503-1.379-2.097-3.831-2.555-5.593-2.555-1.724 0-4.176.458-5.555 2.555-1.111 1.678-1.302 5.071-1.302 8.503s.269 6.71 1.379 8.388c1.379 2.098 3.754 2.669 5.478 2.669 1.762 0 4.137-.571 5.516-2.669 1.11-1.678 1.379-4.956 1.379-8.388zm-25.822 10.676h3.064v-21.353h-3.064v8.656h-6.819v-8.656h-3.065v21.353h3.065v-9.913h6.819v9.913zM68.35 464.116l4.903 10.219-5.517 11.134h3.218l4.176-8.731 4.482 8.731h3.41l-6.052-11.477 4.903-9.876h-3.218l-3.447 7.816-3.716-7.816H68.35zm-15.556 3.432c.651-.914 1.647-1.295 2.605-1.295.919 0 1.915.381 2.566 1.295.651.878.881 2.556.651 4.385H51.76c.115-1.715.422-3.507 1.034-4.385zm8.772 7.054c.613-3.393.345-6.634-.766-8.312-1.379-2.097-3.677-2.555-5.439-2.555-1.724 0-4.099.458-5.479 2.555-1.11 1.678-1.417 5.071-1.417 8.503s.383 6.71 1.494 8.388c1.379 2.098 3.677 2.669 5.401 2.669 1.762 0 4.061-.571 5.439-2.669.689-1.067.919-2.707.651-4.651l-2.949.19c.115 1.183-.038 2.517-.537 3.203-.651.915-1.647 1.296-2.566 1.296a3.208 3.208 0 0 1-2.605-1.372c-.997-1.373-1.111-4.994-1.111-7.092v-.153h9.884zm-35.552 10.867h12.374v4.537h2.988v-7.358h-2.452v-18.531h-3.065v18.569h-6.781v-18.569h-3.064v21.352zM6.781 467.396h4.98l-1.073 6.824h-4.98l1.073-6.824zm-6.053-2.707v2.707h3.371l-1.073 6.824H0v2.707h2.605l-1.341 8.541h2.682l1.34-8.541h4.98l-1.341 8.541h2.682l1.341-8.541h4.482v-2.707h-4.06l1.073-6.824h3.716v-2.707h-3.294l1.264-7.816h-2.682l-1.264 7.816h-4.98l1.264-7.816H5.785l-1.264 7.816H.728z"/></symbol><symbol viewBox="-75 359.4 445 124" id="logo-text"><path fill="#962253" d="M-32.5 445.3c4.8 0 8.8 3.9 8.8 8.7 0 4.8-3.9 8.7-8.8 8.7-4.8 0-8.8-3.9-8.8-8.7 0-4.8 3.9-8.7 8.8-8.7"/><path fill="#2B2A29" d="M333.7 479.9c0 2.3-1.2 3.5-3.5 3.5s-3.4-1.2-3.4-3.5v-92.7c0-.1.1-1.5.2-1.5.2-.7.4-1.1.8-1.7 1-1 2.1-1.2 3.5-1.2h12.2c2.9 0 5.4.2 7.7.5s4.3.8 6 1.5c4.9 1.9 8.4 5 10.6 9.3.7 1.5 1.2 3 1.6 4.7.4 1.6.5 3.3.5 5.1 0 1.9-.2 3.7-.5 5.4-.4 1.7-.9 3.3-1.7 4.9-.8 1.6-1.7 3-2.8 4.2-1.1 1.2-2.4 2.3-3.8 3.2-1.4.9-2.9 1.6-4.5 2.2-1.6.6-3.3 1-5.1 1.3-.8.1-1.7.2-2.6.3-1 .1-1.9.2-2.7.2-.9 0-1.8.1-2.8.1h-3c-2.2 0-4.4 0-6.7-.1v54.3zm0-61.2c.6 0 1.2 0 1.8.1h4.3c3.2 0 5.9-.1 8.2-.3 2.2-.2 4-.5 5.4-.9 3.3-1 5.7-2.6 7.3-4.9 1.6-2.3 2.4-5.3 2.4-9 0-2.4-.4-4.5-1.1-6.2-.7-1.7-1.8-3.1-3.3-4.3h-.1c-.9-.8-2-1.4-3.1-1.9s-2.4-.9-3.7-1.1c-1.2-.2-2.5-.3-3.9-.4-.8-.1-1.5-.1-2.1-.1h-12.1v29zm-45-36.7c2.7 0 5.3.4 7.8 1.1 2.5.7 5 1.8 7.3 3.2 4.8 2.9 8.4 6.8 10.8 11.6 1.1 2.1 1.9 4.2 2.4 6.4s.8 4.5.8 6.8c0 1.9-.2 3.7-.6 5.6-.4 1.9-.9 3.7-1.7 5.5-.7 1.8-1.7 3.5-2.7 5.1-1.1 1.6-2.3 3.1-3.6 4.4-2.8 2.8-6 4.9-9.6 6.3-1.8.7-3.7 1.3-5.5 1.7-1.9.4-3.8.6-5.7.6-1.9 0-3.9-.2-5.7-.6-1.8-.4-3.7-.9-5.5-1.7-1.8-.7-3.5-1.6-5.1-2.7-1.6-1.1-3.1-2.3-4.5-3.7-1.3-1.3-2.5-2.7-3.6-4.2-1-1.5-1.9-3.1-2.7-4.8-.7-1.7-1.3-3.4-1.7-5.2-.2-1-.4-2-.5-3h-4.8V436c0 2.4-1.2 3.5-3.5 3.5-1.1 0-1.9-.4-2.6-1.1-.5-.6-.8-1.4-.8-2.4v-49.7c0-1 .3-1.8.9-2.4.6-.7 1.5-1.1 2.5-1.1 2.3 0 3.5 1.2 3.5 3.5v21.5h4.8c.2-1.7.5-3.3 1-4.9.7-2.4 1.8-4.7 3.1-6.9 1.4-2.3 3.1-4.4 5.1-6.2 1.9-1.8 4.2-3.3 6.6-4.5 2.1-1.1 4.3-1.9 6.6-2.4 2.4-.6 4.7-.9 7.2-.9zm-.6 6.8c-1.4 0-2.8.1-4.2.4-1.4.3-2.8.7-4.1 1.3-1.4.6-2.7 1.3-3.9 2.1-1.2.8-2.3 1.7-3.4 2.8-2.1 2.1-3.7 4.5-4.9 7.3-1.1 2.8-1.7 5.6-1.7 8.6 0 2.9.6 5.8 1.7 8.5.6 1.4 1.3 2.7 2.1 3.9.8 1.2 1.7 2.3 2.8 3.4 2.2 2.2 4.6 3.8 7.2 4.9 2.6 1.1 5.5 1.6 8.6 1.6 3.1 0 6-.5 8.6-1.6 2.6-1.1 5-2.7 7.2-4.9 1-1.1 2-2.2 2.8-3.4.8-1.2 1.5-2.5 2.1-3.9.6-1.3 1-2.7 1.3-4.2.3-1.4.4-2.9.4-4.4 0-1.5-.1-3-.4-4.4-.3-1.4-.7-2.9-1.3-4.3-.6-1.4-1.3-2.7-2.1-3.9-.8-1.2-1.7-2.3-2.7-3.2-2.3-2.2-4.8-3.9-7.5-5-2.5-1.1-5.5-1.6-8.6-1.6zm-51.8 44.6c.5.3 1 .7 1.3 1.2.4.6.5 1.2.5 1.8 0 1-.3 1.8-1 2.4-.6.6-1.4 1-2.4 1h-.4l-.4-.1-.5-.2-.2-.1-.2-.1-35.3-18.6V436c0 2.4-1.2 3.5-3.5 3.5-1.1 0-1.9-.4-2.6-1.1-.5-.6-.8-1.4-.8-2.4l-.5-73.1c0-1 .3-1.8.9-2.4.6-.7 1.5-1.1 2.5-1.1 2.3 0 3.5 1.2 3.5 3.5l.5 46.5 34.7-25.9c.3-.2.6-.4.9-.5.4-.2.8-.2 1.2-.2 1 0 1.8.3 2.5 1 .6.6.9 1.4.9 2.3 0 .5-.1 1-.4 1.5-.2.3-.4.6-.7.9l-.2.1-.1.1-35.3 26.3 35.1 18.4zm-89.5-37.9l-34.7 43c-.3.4-.7.7-1.1.9-.5.3-1.1.4-1.7.4h-.6l-1.1-.4c-.4-.2-.7-.4-.9-.8-.6-.7-.8-1.5-.8-2.4v-50c0-2.3 1.2-3.5 3.5-3.5s3.4 1.2 3.4 3.5v40.6l34.7-42.9c.3-.4.6-.8 1-1 2.7-1.9 5.4-.4 5.4 3.1l-.5 73.2c0 .9-.3 1.7-.8 2.4-.6.8-1.5 1.1-2.6 1.1-1 0-1.9-.4-2.6-1.1-.6-.7-.9-1.5-.9-2.5l.3-63.6zM34.5 436.9zM9.7 382.2l.2-.5.2.5c.7 0 1.4.3 1.9.8.4.4.8.9 1.1 1.5L30 417.2h19.5v-30.9c0-2.3 1.2-3.5 3.5-3.5s3.4 1.2 3.4 3.5v30.9H86v-30.9c0-1 .3-1.8.9-2.4.6-.7 1.5-1.1 2.5-1.1 2.3 0 3.5 1.2 3.5 3.5V436c0 2.3-1.2 3.5-3.5 3.5S86 438.3 86 436v-12.1H56.4V436c0 1-.3 1.8-.9 2.4-.6.7-1.5 1.1-2.5 1.1-2.3 0-3.5-1.2-3.5-3.5v-12.1h-16l5.5 10.7c.1.2.2.4.2.6.1.4.2.7.2 1 0 1-.3 1.8-1 2.4-.6.6-1.4 1-2.4 1-.7 0-1.3-.2-1.8-.5s-.9-.7-1.2-1.3v-.1l-7.1-13.8H-6l-7.1 13.7c-.3.6-.6 1-1.1 1.4-.6.4-1.2.6-1.9.6-1 0-1.8-.3-2.4-.9-.7-.6-1.1-1.5-1.1-2.5 0-.3.1-.6.2-1 .1-.2.2-.4.2-.6l5.6-10.7h-.7c-1 0-1.8-.3-2.4-1-.6-.6-1-1.4-1-2.4 0-2.3 1.1-3.4 3.4-3.4h4.1l17-32.8c.3-.6.6-1.1 1.1-1.4.4-.4 1.1-.7 1.8-.7zm.2 10.6l-12.5 24.4h25L9.9 392.8zm-78 66.4c0 2.3-1.2 3.5-3.5 3.5s-3.4-1.2-3.4-3.5v-73.4c0-.9.2-1.7.7-2.4.3-.4.7-.7 1.1-1l1.1-.3h.5c1.1 0 2 .5 2.9 1.4l.1.1 17.3 22.7 17.1-22.7.1-.1c.9-1 1.9-1.5 3.3-1.4 2.2.5 3 1.2 3 3.7V436c0 1-.3 1.8-.9 2.4-.6.7-1.5 1.1-2.5 1.1-2.3 0-3.5-1.2-3.5-3.5v-40.3l-13.6 17.9c-.3.4-.7.8-1.1 1.1-.6.4-1.2.6-1.9.6s-1.3-.2-1.9-.6c-.3-.2-.7-.6-1-1l-13.9-18v63.5zm240-90.6c2 0 3.7 1.6 3.7 3.7v15.3c0 2-1.7 3.7-3.7 3.7s-3.7-1.6-3.7-3.7v-15.3c0-2.1 1.7-3.7 3.7-3.7"/></symbol><symbol viewBox="0 0 64 64" id="next"><path d="M44.152 32.024L15.824 60.353a2.014 2.014 0 1 0 2.848 2.849l29.736-29.736c.557-.557.718-1.439.445-2.177a2.042 2.042 0 0 0-.464-.725L18.652.828a2.013 2.013 0 1 0-2.848 2.848l28.348 28.348z"/></symbol><symbol viewBox="0 0 476.213 476.213" id="return"><path d="M476.213 223.107H76.212v-61.214L0 238.108l76.212 76.212v-61.213h400.001z"/></symbol><symbol viewBox="0 0 1000 1000" id="round"><path d="M500 0C223.857 0 0 223.857 0 500c0 276.142 223.857 500 500 500s500-223.858 500-500C1000 223.857 776.143 0 500 0zm0 788.372c-159.264 0-288.372-129.108-288.372-288.372S340.736 211.628 500 211.628 788.372 340.736 788.372 500 659.264 788.372 500 788.372z"/></symbol></svg>