<?xml version="1.0" standalone="no"?>
<!DOCTYPE svg PUBLIC "-//W3C//DTD SVG 20010904//EN"
 "http://www.w3.org/TR/2001/REC-SVG-20010904/DTD/svg10.dtd">
<svg version="1.0" xmlns="http://www.w3.org/2000/svg"
 width="16.000000pt" height="16.000000pt" viewBox="0 0 16.000000 16.000000"
 preserveAspectRatio="xMidYMid meet">
<metadata>
Created by potrace 1.11, written by Peter Selinger 2001-2013
</metadata>
<g transform="translate(0.000000,16.000000) scale(0.006154,-0.006154)"
fill="#000000" stroke="none">
<path d="M1239 2524 c0 -103 -7 -261 -14 -329 -3 -33 -8 -87 -11 -120 -3 -33
-7 -71 -9 -85 -3 -14 -7 -50 -10 -80 -4 -30 -8 -62 -10 -70 -3 -8 -7 -33 -10
-55 -24 -159 -102 -407 -161 -511 -24 -43 -44 -80 -44 -83 0 -12 86 -59 135
-74 82 -25 104 -28 196 -28 131 0 256 35 319 88 18 16 18 17 1 42 -69 97 -143
306 -176 491 -19 109 -35 215 -40 270 -4 36 -9 85 -11 109 -3 24 -7 67 -9 95
-2 28 -6 71 -9 96 -3 25 -8 77 -11 117 -6 71 -6 72 -65 133 l-60 62 -1 -68z
m106 -349 c26 -558 38 -695 80 -893 7 -37 18 -80 24 -94 12 -32 5 -39 -50 -45
-32 -4 -38 -2 -37 14 0 10 -2 97 -6 193 -3 96 -8 288 -11 425 -3 138 -8 293
-10 345 -13 253 -14 307 -5 245 5 -33 11 -118 15 -190z"/>
<path d="M899 1073 c-203 -168 -272 -464 -164 -710 23 -51 23 -51 62 -46 55 7
97 -29 96 -81 -1 -20 -6 -43 -13 -51 -26 -32 161 -144 285 -170 216 -45 429
19 580 174 168 173 217 416 129 638 -43 107 -160 263 -198 263 -6 0 -41 -16
-77 -35 -185 -98 -488 -84 -645 30 -20 15 -24 14 -55 -12z m177 -138 c22 -14
30 -40 25 -85 -3 -25 -50 -60 -82 -60 -83 0 -111 123 -35 155 35 15 58 12 92
-10z m250 -230 c27 -18 41 -74 25 -104 -12 -22 -58 -49 -78 -45 -7 1 -18 2
-23 3 -19 2 -60 54 -60 75 1 49 52 98 93 90 11 -2 30 -10 43 -19z m-407 -72
c46 -52 7 -133 -66 -133 -65 0 -105 75 -67 128 33 47 93 49 133 5z m663 -163
c79 -61 -6 -184 -92 -134 -27 16 -42 39 -45 69 -2 18 24 64 42 74 28 16 68 13
95 -9z m-419 -129 c28 -11 49 -56 42 -91 -18 -94 -165 -79 -165 17 0 63 59 98
123 74z"/>
</g>
</svg>
