<?xml version="1.0" encoding="utf-8"?>
<!-- Generator: Adobe Illustrator 16.0.0, SVG Export Plug-In . SVG Version: 6.00 Build 0)  -->
<!DOCTYPE svg PUBLIC "-//W3C//DTD SVG 1.1//EN" "http://www.w3.org/Graphics/SVG/1.1/DTD/svg11.dtd">
<svg version="1.1" id="Слой_1" xmlns="http://www.w3.org/2000/svg" xmlns:xlink="http://www.w3.org/1999/xlink" x="0px" y="0px"
	 width="445px" height="495px" viewBox="0 0 445 495" enable-background="new 0 0 445 495" xml:space="preserve">
<path fill-rule="evenodd" clip-rule="evenodd" fill="#962253" d="M169.218,229.07c5.575,0,10.095,4.499,10.095,10.047
	s-4.52,10.047-10.095,10.047c-5.576,0-10.095-4.498-10.095-10.047S163.642,229.07,169.218,229.07 M188.982,194.511
	c5.576,0,10.095,4.499,10.095,10.047s-4.519,10.047-10.095,10.047c-5.575,0-10.095-4.498-10.095-10.047
	S183.407,194.511,188.982,194.511z M219.431,222.158c5.576,0,10.095,4.499,10.095,10.047c0,5.549-4.519,10.047-10.095,10.047
	c-5.575,0-10.095-4.498-10.095-10.047C209.336,226.657,213.855,222.158,219.431,222.158z M249.879,249.805
	c5.576,0,10.095,4.499,10.095,10.047s-4.519,10.047-10.095,10.047c-5.575,0-10.094-4.498-10.094-10.047
	S244.304,249.805,249.879,249.805z M201.268,266.287c5.576,0,10.096,4.499,10.096,10.047s-4.52,10.047-10.096,10.047
	c-5.574,0-10.094-4.499-10.094-10.047S195.694,266.287,201.268,266.287z M296.405,235.76c0,40.278-34.074,72.407-73.903,72.407
	c-20.126,0-38.369-7.886-51.696-20.67c2.039-1.839,3.32-4.495,3.32-7.449c0-5.548-4.521-10.047-10.095-10.047
	c-2.104,0-4.059,0.641-5.676,1.738c-6.208-10.598-9.756-22.883-9.756-35.979c0-24.275,11.366-45.081,30.038-58.275
	c22.535,19.379,68.161,16.447,87.906,0.557C276.291,182.857,296.405,207.533,296.405,235.76z"/>
<path fill-rule="evenodd" clip-rule="evenodd" fill="#2B2A29" d="M229.969,173.114c-2.671-48.382-1.277-105.448-5.551-151.704
	c0,0,0.26-2.147,1.217,0.21c5.009,47.709,2.165,109.447,15.677,149.144C238.967,172.279,234.165,173.219,229.969,173.114
	 M182.102,166.564C209.025,132.052,215.116,48.336,215.33,0c4.755,5.505,7.363,10.477,14.095,14.34
	c4.737,48.028,6.444,115.52,33.477,152.284C245.54,182.84,201.6,183.844,182.102,166.564z"/>
<path fill-rule="evenodd" clip-rule="evenodd" fill="#962253" d="M42.498,404.988c4.848,0,8.78,3.897,8.78,8.704
	c0,4.808-3.932,8.704-8.78,8.704c-4.849,0-8.781-3.896-8.781-8.704C33.717,408.886,37.649,404.988,42.498,404.988"/>
<path fill-rule="evenodd" clip-rule="evenodd" fill="#2B2A29" d="M408.658,439.573c0,2.302-1.157,3.453-3.471,3.453
	c-2.262,0-3.394-1.151-3.394-3.453v-92.666c0-0.127,0.091-1.525,0.179-1.501c0.174-0.692,0.427-1.146,0.834-1.714
	c0.985-0.979,2.1-1.246,3.469-1.246h12.214c2.864,0,5.438,0.159,7.719,0.476c2.319,0.321,4.33,0.816,6.029,1.485l0.001-0.002
	c4.91,1.883,8.446,4.977,10.606,9.276l0.019,0.038c0.716,1.484,1.249,3.04,1.599,4.667c0.351,1.629,0.526,3.327,0.526,5.092
	c0,1.865-0.182,3.652-0.545,5.361c-0.362,1.704-0.915,3.324-1.657,4.859c-0.76,1.573-1.688,2.973-2.779,4.193
	c-1.105,1.236-2.386,2.307-3.841,3.211h-0.001c-1.381,0.885-2.886,1.619-4.511,2.202c-1.617,0.58-3.32,0.997-5.105,1.252h-0.04
	c-0.833,0.105-1.692,0.199-2.578,0.28c-0.954,0.086-1.868,0.154-2.735,0.203c-0.863,0.049-1.814,0.088-2.849,0.116
	c-1.186,0.032-2.174,0.049-2.969,0.049c-2.179,0-4.419-0.043-6.72-0.128V439.573z M408.658,378.344
	c0.623,0.023,1.236,0.044,1.839,0.061c1.207,0.031,2.653,0.048,4.336,0.048c3.207,0,5.933-0.103,8.175-0.31
	c2.179-0.199,3.978-0.497,5.395-0.891c3.265-1.018,5.681-2.644,7.253-4.877c1.595-2.269,2.393-5.261,2.393-8.975
	c0-2.397-0.382-4.471-1.144-6.214c-0.735-1.685-1.847-3.108-3.331-4.271l-0.06-0.049c-0.943-0.786-1.975-1.437-3.092-1.948
	c-1.134-0.521-2.354-0.902-3.66-1.145c-1.177-0.188-2.465-0.331-3.86-0.429c-0.785-0.056-1.499-0.095-2.138-0.116
	c-0.571-0.02-1.332-0.029-2.274-0.029h-9.831V378.344z M363.705,341.672c2.671,0,5.269,0.362,7.793,1.086v0.01
	c2.545,0.73,4.979,1.807,7.306,3.229v0.01c4.764,2.937,8.368,6.808,10.812,11.614l-0.004,0.002c1.074,2.086,1.882,4.229,2.419,6.426
	c0.546,2.229,0.818,4.492,0.818,6.786c0,1.863-0.191,3.734-0.574,5.612c-0.382,1.87-0.943,3.69-1.686,5.458
	c-0.746,1.781-1.652,3.466-2.717,5.052c-1.073,1.597-2.282,3.065-3.624,4.401c-2.766,2.752-5.961,4.868-9.586,6.347l0.001,0.003
	c-1.819,0.742-3.66,1.296-5.521,1.658c-1.886,0.369-3.802,0.553-5.748,0.553c-1.945,0-3.86-0.184-5.747-0.553
	c-1.848-0.36-3.687-0.914-5.513-1.658c-1.817-0.74-3.522-1.64-5.113-2.694c-1.618-1.073-3.111-2.292-4.481-3.655l0.006-0.005
	c-1.332-1.299-2.516-2.701-3.55-4.202c-1.044-1.516-1.935-3.127-2.669-4.829c-0.727-1.679-1.291-3.422-1.695-5.225
	c-0.219-0.979-0.387-1.966-0.502-2.964h-4.763v21.479c0,2.355-1.157,3.532-3.471,3.532c-1.064,0-1.925-0.384-2.574-1.149
	c-0.545-0.641-0.818-1.435-0.818-2.383V345.9c0-0.959,0.296-1.761,0.888-2.402c0.646-0.701,1.48-1.052,2.505-1.052
	c2.313,0,3.471,1.151,3.471,3.454v21.479h4.767c0.198-1.684,0.543-3.331,1.034-4.941c0.731-2.399,1.771-4.688,3.117-6.864
	l0.004,0.003c1.421-2.316,3.105-4.367,5.051-6.149c1.946-1.781,4.155-3.294,6.623-4.536l0.002,0.003
	c2.114-1.079,4.313-1.885,6.593-2.418C358.854,341.941,361.236,341.672,363.705,341.672z M363.083,348.426
	c-1.439,0-2.837,0.14-4.191,0.415c-1.374,0.28-2.752,0.709-4.134,1.285c-1.373,0.571-2.658,1.257-3.854,2.057
	c-1.2,0.802-2.327,1.728-3.377,2.771v0.011c-2.104,2.095-3.726,4.517-4.862,7.264c-1.138,2.751-1.706,5.62-1.706,8.605
	c0,2.934,0.568,5.776,1.706,8.528c0.568,1.373,1.262,2.671,2.077,3.893c0.809,1.211,1.734,2.335,2.775,3.37h0.01
	c2.21,2.2,4.623,3.839,7.24,4.917c2.623,1.081,5.499,1.623,8.626,1.623c3.128,0,6.004-0.541,8.628-1.623
	c2.616-1.078,5.029-2.717,7.238-4.917l0.005,0.005c1.043-1.063,1.97-2.2,2.78-3.414c0.812-1.215,1.505-2.504,2.077-3.863
	c0.565-1.348,0.993-2.734,1.28-4.162c0.285-1.417,0.428-2.87,0.428-4.356c0-1.495-0.143-2.961-0.428-4.396
	c-0.286-1.438-0.717-2.859-1.29-4.259c-0.567-1.384-1.254-2.668-2.058-3.854c-0.805-1.188-1.721-2.271-2.745-3.244l-0.029-0.03
	c-2.28-2.222-4.765-3.884-7.453-4.984C369.154,348.974,366.238,348.426,363.083,348.426z M311.251,393.035
	c0.545,0.31,0.976,0.712,1.29,1.206l-0.007,0.005c0.36,0.563,0.54,1.174,0.54,1.83c0,0.975-0.319,1.779-0.957,2.414l-0.01,0.011
	c-0.639,0.634-1.447,0.953-2.426,0.953h-0.377l-0.416-0.139l-0.467-0.155l-0.233-0.078l-0.152-0.079l-35.26-18.563v15.172
	c0,2.355-1.157,3.532-3.471,3.532c-1.066,0-1.926-0.384-2.574-1.149c-0.545-0.641-0.819-1.435-0.819-2.383l-0.479-73.085
	c0-0.959,0.297-1.761,0.888-2.403c0.646-0.7,1.48-1.051,2.506-1.051c2.313,0,3.471,1.151,3.471,3.454l0.479,46.448l34.69-25.86
	c0.295-0.222,0.612-0.395,0.943-0.519c0.404-0.151,0.801-0.227,1.193-0.227c1.005,0,1.824,0.349,2.456,1.042
	c0.571,0.625,0.859,1.404,0.859,2.335c0,0.521-0.143,1.035-0.425,1.542v0.011c-0.18,0.322-0.42,0.634-0.718,0.93l-0.152,0.149
	l-0.115,0.087l-35.293,26.257l34.956,18.273L311.251,393.035z M221.784,355.153l-34.701,42.966l-0.03,0.03
	c-0.338,0.403-0.719,0.721-1.142,0.949c-0.529,0.288-1.082,0.432-1.656,0.432c-0.206,0-0.403-0.014-0.594-0.042l-1.087-0.352
	c-0.351-0.188-0.665-0.442-0.942-0.766c-0.565-0.654-0.848-1.472-0.848-2.449V345.9c0-2.303,1.157-3.454,3.471-3.454
	c2.262,0,3.393,1.151,3.393,3.454v40.617l34.656-42.896c0.267-0.416,0.598-0.762,0.991-1.036l-0.004-0.005
	c2.723-1.902,5.355-0.379,5.355,3.088l-0.479,73.215c0,0.946-0.274,1.74-0.819,2.382c-0.649,0.767-1.508,1.149-2.574,1.149
	c-1.047,0-1.901-0.357-2.563-1.07c-0.604-0.652-0.907-1.473-0.907-2.461L221.784,355.153z M109.521,396.577l-0.015-0.028
	l0.008,0.032L109.521,396.577z M84.708,341.835l0.233-0.455l0.233,0.455c0.715,0.046,1.357,0.306,1.927,0.778h0.01
	c0.443,0.367,0.797,0.855,1.059,1.459l16.859,32.753h19.529V345.9c0-2.303,1.157-3.454,3.471-3.454c2.261,0,3.393,1.151,3.393,3.454
	v30.925h29.546V345.9c0-0.959,0.296-1.761,0.888-2.402c0.646-0.701,1.48-1.052,2.504-1.052c2.314,0,3.471,1.151,3.471,3.454v49.789
	c0,2.302-1.157,3.454-3.471,3.454c-2.26,0-3.392-1.152-3.392-3.454v-12.11h-29.546v12.11c0,0.952-0.297,1.751-0.888,2.394v0.01
	c-0.646,0.699-1.48,1.051-2.505,1.051c-2.314,0-3.471-1.152-3.471-3.454v-12.11h-16.053l5.525,10.734l0.02,0.02
	c0.091,0.181,0.173,0.382,0.246,0.597c0.118,0.353,0.178,0.685,0.178,0.992c0,0.974-0.321,1.778-0.958,2.414l-0.01,0.01
	c-0.639,0.635-1.447,0.952-2.425,0.952c-0.66,0-1.273-0.179-1.839-0.537l-0.005,0.007c-0.491-0.31-0.896-0.741-1.211-1.293
	l-0.049-0.089l-7.148-13.807h-0.25H68.977l-7.116,13.743c-0.265,0.57-0.648,1.029-1.146,1.377c-0.572,0.398-1.211,0.599-1.913,0.599
	c-0.957,0-1.759-0.294-2.405-0.883h-0.01c-0.704-0.643-1.056-1.474-1.056-2.493c0-0.308,0.059-0.64,0.178-0.992
	c0.072-0.215,0.155-0.416,0.246-0.597l0.03-0.04l5.613-10.714h-0.729c-0.978,0-1.786-0.317-2.425-0.951l-0.01-0.01
	c-0.637-0.637-0.958-1.441-0.958-2.415c0-2.25,1.131-3.378,3.393-3.378h4.063l16.986-32.773c0.258-0.589,0.611-1.07,1.055-1.438
	h0.01C83.352,342.141,83.994,341.881,84.708,341.835z M84.941,352.436l-12.516,24.39h25.032L84.941,352.436z M6.878,418.873
	c0,2.303-1.157,3.454-3.471,3.454c-2.261,0-3.392-1.151-3.392-3.454v-73.359c0-0.932,0.236-1.719,0.709-2.36
	c0.306-0.415,0.666-0.733,1.08-0.954l1.118-0.343c0.156-0.02,0.317-0.029,0.485-0.029c1.084,0,2.036,0.478,2.856,1.43l0.089,0.118
	l17.269,22.663l17.052-22.652l0.099-0.129c0.901-1.045,1.915-1.52,3.29-1.413c2.162,0.481,2.959,1.207,2.959,3.67v50.176
	c0,0.952-0.297,1.751-0.888,2.394v0.01c-0.646,0.699-1.481,1.051-2.505,1.051c-2.313,0-3.47-1.152-3.47-3.454v-40.316L26.59,373.281
	l-0.005-0.004c-0.339,0.449-0.697,0.8-1.076,1.051l-0.005-0.006c-0.589,0.391-1.213,0.585-1.87,0.585
	c-0.674,0-1.307-0.212-1.895-0.638c-0.333-0.241-0.657-0.569-0.969-0.98l-0.003,0.002L6.878,355.268V418.873z"/>
<path fill-rule="evenodd" clip-rule="evenodd" fill="#2B2A29" d="M246.895,328.277L246.895,328.277c2.023,0,3.677,1.646,3.677,3.659
	v15.328c0,2.013-1.653,3.658-3.676,3.658h-0.001c-2.021,0-3.675-1.646-3.675-3.658v-15.328
	C243.22,329.924,244.873,328.277,246.895,328.277"/>
<path fill="#962253" d="M434.581,481.389c-0.038,0.153-0.268,0.114-0.229-0.076c0.268-1.602,0.384-4.004,0.384-9.112v-8.084h-3.065
	v21.353h3.908l6.512-17.233c0.077-0.153,0.268-0.076,0.229,0.075c-0.19,1.755-0.383,3.813-0.383,8.923v8.235H445v-21.353h-3.868
	L434.581,481.389z M411.096,481.389c-0.039,0.153-0.268,0.114-0.23-0.076c0.268-1.602,0.384-4.004,0.384-9.112v-8.084h-3.065v21.353
	h3.908l6.512-17.233c0.077-0.153,0.269-0.076,0.23,0.075c-0.191,1.755-0.384,3.813-0.384,8.923v8.235h3.064v-21.353h-3.869
	L411.096,481.389z M388.798,469.531c0.46-1.945,1.877-3.241,3.524-3.241c1.226,0,2.03,0.382,2.566,1.296
	c0.881,1.488,1.072,4.386,1.072,6.482c0,2.478-0.268,5.948-1.264,7.32c-0.651,0.916-1.763,1.678-3.371,1.755
	c-1.264,0.075-1.762,0-2.835-0.306v-9.608C388.491,471.819,388.605,470.332,388.798,469.531z M385.465,471.17V495h3.064
	l-0.038-9.569c0.843,0.229,1.494,0.305,2.797,0.305c2.146,0,4.75-0.915,6.129-3.012c1.111-1.678,1.725-5.262,1.725-8.693
	c0.038-3.431-0.307-5.986-1.341-7.74c-1.303-2.174-3.026-2.555-5.172-2.555c-2.222,0-3.946,1.335-4.367,2.479
	c-0.115,0.229-0.345,0.19-0.383,0c-0.269-0.991-0.958-1.754-1.571-2.249l-2.375,1.906
	C385.312,467.13,385.427,468.578,385.465,471.17z M370.024,485.469h3.065V466.9h4.749v-2.784h-12.564v2.784h4.75V485.469z
	 M356.575,478.72c0.115,1.183,0.039,2.631-0.459,3.317c-0.651,0.915-1.647,1.182-2.566,1.182c-0.958,0-1.955-0.457-2.605-1.372
	c-0.997-1.373-1.111-4.994-1.111-7.092s0.114-5.834,1.111-7.207c0.65-0.914,1.647-1.295,2.605-1.295c0.919,0,1.8,0.151,2.45,1.066
	c0.46,0.61,0.575,1.717,0.46,2.974l3.104,0.268c0.269-1.64,0.115-3.279-0.537-4.271c-1.379-2.097-3.753-2.555-5.516-2.555
	c-1.724,0-4.1,0.458-5.479,2.555c-1.111,1.678-1.417,5.071-1.417,8.503s0.383,6.71,1.493,8.388c1.379,2.098,3.679,2.669,5.402,2.669
	c1.763,0,4.061-0.571,5.439-2.669c0.69-1.067,0.919-2.707,0.652-4.651L356.575,478.72z M324.893,493.628
	c0.843,0.878,1.915,1.372,3.294,1.372c2.49,0,4.062-1.524,5.172-5.49l7.048-25.394h-3.179l-3.908,14.681
	c-0.19,0.876-0.383,1.639-0.383,1.639c-0.038,0.229-0.191,0.268-0.268,0c-0.153-1.258-0.345-2.021-0.729-3.66l-3.563-12.659h-3.295
	l6.513,21.276l-0.268,1.144c-1.111,4.729-1.916,5.681-3.142,5.681c-0.536,0.076-1.188-0.267-1.724-0.838L324.893,493.628z
	 M309.565,466.557h4.636v16.091h-7.162C309.067,480.55,309.222,474.03,309.565,466.557z M302.212,490.006h2.834v-4.537h11.837v4.537
	h2.835v-7.358h-2.452v-18.531h-10.648c-0.038,8.617-0.076,17.083-3.142,18.531h-1.264V490.006z M291.674,485.469h3.064v-21.353
	h-3.064v8.656h-6.818v-8.656h-3.066v21.353h3.066v-9.913h6.818V485.469z M261.216,481.389c-0.038,0.153-0.268,0.114-0.229-0.076
	c0.268-1.602,0.383-4.004,0.383-9.112v-8.084h-3.064v21.353h3.907l6.513-17.233c0.077-0.153,0.269-0.076,0.229,0.075
	c-0.19,1.755-0.383,3.813-0.383,8.923v8.235h3.064v-21.353h-3.869L261.216,481.389z M237.73,481.389
	c-0.038,0.153-0.269,0.114-0.229-0.076c0.268-1.602,0.383-4.004,0.383-9.112v-8.084h-3.064v21.353h3.907l6.512-17.233
	c0.077-0.153,0.269-0.076,0.23,0.075c-0.192,1.755-0.384,3.813-0.384,8.923v8.235h3.065v-21.353h-3.87L237.73,481.389z
	 M241.562,459.771c-1.61,0-2.336-1.372-2.336-2.897l-2.452,0.381c0,3.127,2.26,4.386,4.788,4.386s4.788-1.259,4.788-4.386
	l-2.452-0.381C243.897,458.398,243.17,459.771,241.562,459.771z M215.279,474.831c0-2.098,0-5.91,0.996-7.283
	c0.651-0.914,1.724-1.295,2.682-1.295c0.919,0,1.991,0.381,2.644,1.295c0.995,1.373,0.995,5.186,0.995,7.283
	c0,2.021,0,5.643-0.995,7.016c-0.652,0.915-1.725,1.372-2.644,1.372c-0.958,0-2.031-0.457-2.682-1.372
	C215.279,480.512,215.279,476.928,215.279,474.831z M225.814,474.793c0-3.432-0.192-6.825-1.303-8.503
	c-1.38-2.097-3.83-2.555-5.593-2.555c-1.724,0-4.176,0.458-5.555,2.555c-1.111,1.678-1.302,5.071-1.302,8.503
	s0.268,6.71,1.378,8.388c1.379,2.098,3.754,2.669,5.479,2.669c1.763,0,4.137-0.571,5.516-2.669
	C225.546,481.503,225.814,478.225,225.814,474.793z M196.774,466.253c2.336,0,3.217,1.563,3.217,2.821
	c0,1.601-0.459,3.621-3.217,3.621h-2.605v-6.329C195.127,466.29,196.124,466.253,196.774,466.253z M196.774,475.289
	c2.873,0,4.137,1.22,4.137,3.736c0,2.63-1.686,4.155-4.329,4.231c-0.92,0.038-1.686,0-2.414-0.113v-7.854H196.774z M191.104,485.469
	c1.763,0.267,3.525,0.381,5.631,0.381c4.827,0,7.47-2.744,7.47-6.863c0-2.668-1.532-4.46-3.831-4.956
	c-0.153-0.038-0.153-0.305,0-0.343c1.762-0.725,2.72-2.288,2.72-4.767c0-3.698-3.333-5.186-6.397-5.186
	c-1.992,0-5.593,0.381-5.593,0.381V485.469z M173.289,467.548c0.651-0.914,1.647-1.295,2.605-1.295c0.92,0,1.916,0.381,2.567,1.295
	c0.651,0.878,0.881,2.556,0.651,4.385h-6.857C172.369,470.218,172.676,468.426,173.289,467.548z M182.061,474.602
	c0.613-3.393,0.345-6.634-0.767-8.312c-1.378-2.097-3.677-2.555-5.439-2.555c-1.724,0-4.099,0.458-5.479,2.555
	c-1.111,1.678-1.417,5.071-1.417,8.503s0.383,6.71,1.494,8.388c1.379,2.098,3.678,2.669,5.402,2.669
	c1.762,0,4.061-0.571,5.439-2.669c0.689-1.067,0.919-2.707,0.651-4.651l-2.949,0.19c0.114,1.183-0.039,2.517-0.537,3.203
	c-0.651,0.915-1.647,1.296-2.567,1.296c-0.958,0-1.954-0.457-2.605-1.372c-0.996-1.373-1.111-4.994-1.111-7.092v-0.153H182.061z
	 M154.821,485.469h3.064V466.9h4.75v-2.784h-12.564v2.784h4.75V485.469z M135.013,485.469h3.065v-18.53h7.393v-2.822h-10.458
	V485.469z M115.474,474.831c0-2.098,0-5.91,0.997-7.283c0.651-0.914,1.724-1.295,2.681-1.295c0.919,0,1.992,0.381,2.644,1.295
	c0.996,1.373,0.996,5.186,0.996,7.283c0,2.021,0,5.643-0.996,7.016c-0.651,0.915-1.724,1.372-2.644,1.372
	c-0.957,0-2.03-0.457-2.681-1.372C115.474,480.512,115.474,476.928,115.474,474.831z M126.009,474.793
	c0-3.432-0.191-6.825-1.302-8.503c-1.379-2.097-3.831-2.555-5.593-2.555c-1.724,0-4.176,0.458-5.555,2.555
	c-1.111,1.678-1.302,5.071-1.302,8.503s0.269,6.71,1.379,8.388c1.379,2.098,3.754,2.669,5.478,2.669
	c1.762,0,4.137-0.571,5.516-2.669C125.74,481.503,126.009,478.225,126.009,474.793z M100.187,485.469h3.064v-21.353h-3.064v8.656
	h-6.819v-8.656h-3.065v21.353h3.065v-9.913h6.819V485.469z M68.35,464.116l4.903,10.219l-5.517,11.134h3.218l4.176-8.731
	l4.482,8.731h3.41l-6.052-11.477l4.903-9.876h-3.218l-3.447,7.816l-3.716-7.816H68.35z M52.794,467.548
	c0.651-0.914,1.647-1.295,2.605-1.295c0.919,0,1.915,0.381,2.566,1.295c0.651,0.878,0.881,2.556,0.651,4.385H51.76
	C51.875,470.218,52.182,468.426,52.794,467.548z M61.566,474.602c0.613-3.393,0.345-6.634-0.766-8.312
	c-1.379-2.097-3.677-2.555-5.439-2.555c-1.724,0-4.099,0.458-5.479,2.555c-1.11,1.678-1.417,5.071-1.417,8.503
	s0.383,6.71,1.494,8.388c1.379,2.098,3.677,2.669,5.401,2.669c1.762,0,4.061-0.571,5.439-2.669c0.689-1.067,0.919-2.707,0.651-4.651
	l-2.949,0.19c0.115,1.183-0.038,2.517-0.537,3.203c-0.651,0.915-1.647,1.296-2.566,1.296c-0.958,0-1.954-0.457-2.605-1.372
	c-0.997-1.373-1.111-4.994-1.111-7.092v-0.153H61.566z M26.014,485.469h12.374v4.537h2.988v-7.358h-2.452v-18.531h-3.065v18.569
	h-6.781v-18.569h-3.064V485.469z M6.781,467.396h4.98l-1.073,6.824H5.708L6.781,467.396z M0.728,464.689v2.707h3.371l-1.073,6.824H0
	v2.707h2.605l-1.341,8.541h2.682l1.34-8.541h4.98l-1.341,8.541h2.682l1.341-8.541h4.482v-2.707H13.37l1.073-6.824h3.716v-2.707
	h-3.294l1.264-7.816h-2.682l-1.264,7.816H7.203l1.264-7.816H5.785l-1.264,7.816H0.728z"/>
</svg>
