<?xml version="1.0" encoding="utf-8"?>
<!-- Generator: Adobe Illustrator 19.0.0, SVG Export Plug-In . SVG Version: 6.00 Build 0)  -->
<svg version="1.1" id="Слой_1" xmlns="http://www.w3.org/2000/svg" xmlns:xlink="http://www.w3.org/1999/xlink" x="0px" y="0px"
	 viewBox="-75 359.4 445 124" style="enable-background:new -75 359.4 445 124;" xml:space="preserve">
<path fill="#962253" d="M-32.5,445.3c4.8,0,8.8,3.9,8.8,8.7c0,4.8-3.9,8.7-8.8,8.7c-4.8,0-8.8-3.9-8.8-8.7
	C-41.3,449.2-37.4,445.3-32.5,445.3"/>
<path fill="#2B2A29" d="M333.7,479.9c0,2.3-1.2,3.5-3.5,3.5c-2.3,0-3.4-1.2-3.4-3.5v-92.7c0-0.1,0.1-1.5,0.2-1.5
	c0.2-0.7,0.4-1.1,0.8-1.7c1-1,2.1-1.2,3.5-1.2h12.2c2.9,0,5.4,0.2,7.7,0.5c2.3,0.3,4.3,0.8,6,1.5l0,0c4.9,1.9,8.4,5,10.6,9.3l0,0
	c0.7,1.5,1.2,3,1.6,4.7c0.4,1.6,0.5,3.3,0.5,5.1c0,1.9-0.2,3.7-0.5,5.4c-0.4,1.7-0.9,3.3-1.7,4.9c-0.8,1.6-1.7,3-2.8,4.2
	c-1.1,1.2-2.4,2.3-3.8,3.2h0c-1.4,0.9-2.9,1.6-4.5,2.2c-1.6,0.6-3.3,1-5.1,1.3h0c-0.8,0.1-1.7,0.2-2.6,0.3c-1,0.1-1.9,0.2-2.7,0.2
	c-0.9,0-1.8,0.1-2.8,0.1c-1.2,0-2.2,0-3,0c-2.2,0-4.4,0-6.7-0.1L333.7,479.9L333.7,479.9z M333.7,418.7c0.6,0,1.2,0,1.8,0.1
	c1.2,0,2.7,0,4.3,0c3.2,0,5.9-0.1,8.2-0.3c2.2-0.2,4-0.5,5.4-0.9c3.3-1,5.7-2.6,7.3-4.9c1.6-2.3,2.4-5.3,2.4-9
	c0-2.4-0.4-4.5-1.1-6.2c-0.7-1.7-1.8-3.1-3.3-4.3l-0.1,0c-0.9-0.8-2-1.4-3.1-1.9c-1.1-0.5-2.4-0.9-3.7-1.1c-1.2-0.2-2.5-0.3-3.9-0.4
	c-0.8-0.1-1.5-0.1-2.1-0.1c-0.6,0-1.3,0-2.3,0h-9.8L333.7,418.7L333.7,418.7z M288.7,382c2.7,0,5.3,0.4,7.8,1.1v0
	c2.5,0.7,5,1.8,7.3,3.2v0c4.8,2.9,8.4,6.8,10.8,11.6l0,0c1.1,2.1,1.9,4.2,2.4,6.4c0.5,2.2,0.8,4.5,0.8,6.8c0,1.9-0.2,3.7-0.6,5.6
	c-0.4,1.9-0.9,3.7-1.7,5.5c-0.7,1.8-1.7,3.5-2.7,5.1c-1.1,1.6-2.3,3.1-3.6,4.4c-2.8,2.8-6,4.9-9.6,6.3l0,0c-1.8,0.7-3.7,1.3-5.5,1.7
	c-1.9,0.4-3.8,0.6-5.7,0.6c-1.9,0-3.9-0.2-5.7-0.6c-1.8-0.4-3.7-0.9-5.5-1.7c-1.8-0.7-3.5-1.6-5.1-2.7c-1.6-1.1-3.1-2.3-4.5-3.7l0,0
	c-1.3-1.3-2.5-2.7-3.6-4.2c-1-1.5-1.9-3.1-2.7-4.8c-0.7-1.7-1.3-3.4-1.7-5.2c-0.2-1-0.4-2-0.5-3h-4.8V436c0,2.4-1.2,3.5-3.5,3.5
	c-1.1,0-1.9-0.4-2.6-1.1c-0.5-0.6-0.8-1.4-0.8-2.4v-49.7c0-1,0.3-1.8,0.9-2.4c0.6-0.7,1.5-1.1,2.5-1.1c2.3,0,3.5,1.2,3.5,3.5v21.5
	h4.8c0.2-1.7,0.5-3.3,1-4.9c0.7-2.4,1.8-4.7,3.1-6.9l0,0c1.4-2.3,3.1-4.4,5.1-6.2c1.9-1.8,4.2-3.3,6.6-4.5l0,0
	c2.1-1.1,4.3-1.9,6.6-2.4C283.9,382.3,286.2,382,288.7,382z M288.1,388.8c-1.4,0-2.8,0.1-4.2,0.4c-1.4,0.3-2.8,0.7-4.1,1.3
	c-1.4,0.6-2.7,1.3-3.9,2.1c-1.2,0.8-2.3,1.7-3.4,2.8v0c-2.1,2.1-3.7,4.5-4.9,7.3c-1.1,2.8-1.7,5.6-1.7,8.6c0,2.9,0.6,5.8,1.7,8.5
	c0.6,1.4,1.3,2.7,2.1,3.9c0.8,1.2,1.7,2.3,2.8,3.4h0c2.2,2.2,4.6,3.8,7.2,4.9c2.6,1.1,5.5,1.6,8.6,1.6c3.1,0,6-0.5,8.6-1.6
	c2.6-1.1,5-2.7,7.2-4.9l0,0c1-1.1,2-2.2,2.8-3.4c0.8-1.2,1.5-2.5,2.1-3.9c0.6-1.3,1-2.7,1.3-4.2c0.3-1.4,0.4-2.9,0.4-4.4
	c0-1.5-0.1-3-0.4-4.4c-0.3-1.4-0.7-2.9-1.3-4.3c-0.6-1.4-1.3-2.7-2.1-3.9c-0.8-1.2-1.7-2.3-2.7-3.2l0,0c-2.3-2.2-4.8-3.9-7.5-5
	C294.2,389.3,291.2,388.8,288.1,388.8z M236.3,433.4c0.5,0.3,1,0.7,1.3,1.2l0,0c0.4,0.6,0.5,1.2,0.5,1.8c0,1-0.3,1.8-1,2.4l0,0
	c-0.6,0.6-1.4,1-2.4,1h-0.4l-0.4-0.1l-0.5-0.2l-0.2-0.1l-0.2-0.1l-35.3-18.6V436c0,2.4-1.2,3.5-3.5,3.5c-1.1,0-1.9-0.4-2.6-1.1
	c-0.5-0.6-0.8-1.4-0.8-2.4l-0.5-73.1c0-1,0.3-1.8,0.9-2.4c0.6-0.7,1.5-1.1,2.5-1.1c2.3,0,3.5,1.2,3.5,3.5l0.5,46.5l34.7-25.9
	c0.3-0.2,0.6-0.4,0.9-0.5c0.4-0.2,0.8-0.2,1.2-0.2c1,0,1.8,0.3,2.5,1c0.6,0.6,0.9,1.4,0.9,2.3c0,0.5-0.1,1-0.4,1.5v0
	c-0.2,0.3-0.4,0.6-0.7,0.9l-0.2,0.1l-0.1,0.1l-35.3,26.3L236.3,433.4L236.3,433.4z M146.8,395.5l-34.7,43l0,0
	c-0.3,0.4-0.7,0.7-1.1,0.9c-0.5,0.3-1.1,0.4-1.7,0.4c-0.2,0-0.4,0-0.6,0l-1.1-0.4c-0.4-0.2-0.7-0.4-0.9-0.8
	c-0.6-0.7-0.8-1.5-0.8-2.4v-50c0-2.3,1.2-3.5,3.5-3.5c2.3,0,3.4,1.2,3.4,3.5v40.6l34.7-42.9c0.3-0.4,0.6-0.8,1-1l0,0
	c2.7-1.9,5.4-0.4,5.4,3.1l-0.5,73.2c0,0.9-0.3,1.7-0.8,2.4c-0.6,0.8-1.5,1.1-2.6,1.1c-1,0-1.9-0.4-2.6-1.1c-0.6-0.7-0.9-1.5-0.9-2.5
	L146.8,395.5z M34.5,436.9L34.5,436.9L34.5,436.9L34.5,436.9z M9.7,382.2l0.2-0.5l0.2,0.5c0.7,0,1.4,0.3,1.9,0.8h0
	c0.4,0.4,0.8,0.9,1.1,1.5L30,417.2h19.5v-30.9c0-2.3,1.2-3.5,3.5-3.5c2.3,0,3.4,1.2,3.4,3.5v30.9H86v-30.9c0-1,0.3-1.8,0.9-2.4
	c0.6-0.7,1.5-1.1,2.5-1.1c2.3,0,3.5,1.2,3.5,3.5V436c0,2.3-1.2,3.5-3.5,3.5c-2.3,0-3.4-1.2-3.4-3.5v-12.1H56.4V436
	c0,1-0.3,1.8-0.9,2.4v0c-0.6,0.7-1.5,1.1-2.5,1.1c-2.3,0-3.5-1.2-3.5-3.5v-12.1H33.5l5.5,10.7l0,0c0.1,0.2,0.2,0.4,0.2,0.6
	c0.1,0.4,0.2,0.7,0.2,1c0,1-0.3,1.8-1,2.4l0,0c-0.6,0.6-1.4,1-2.4,1c-0.7,0-1.3-0.2-1.8-0.5l0,0c-0.5-0.3-0.9-0.7-1.2-1.3l0-0.1
	l-7.1-13.8h-0.3H-6l-7.1,13.7c-0.3,0.6-0.6,1-1.1,1.4c-0.6,0.4-1.2,0.6-1.9,0.6c-1,0-1.8-0.3-2.4-0.9h0c-0.7-0.6-1.1-1.5-1.1-2.5
	c0-0.3,0.1-0.6,0.2-1c0.1-0.2,0.2-0.4,0.2-0.6l0,0l5.6-10.7h-0.7c-1,0-1.8-0.3-2.4-1l0,0c-0.6-0.6-1-1.4-1-2.4
	c0-2.3,1.1-3.4,3.4-3.4h4.1l17-32.8c0.3-0.6,0.6-1.1,1.1-1.4h0C8.3,382.5,9,382.2,9.7,382.2z M9.9,392.8l-12.5,24.4h25L9.9,392.8z
	 M-68.1,459.2c0,2.3-1.2,3.5-3.5,3.5c-2.3,0-3.4-1.2-3.4-3.5v-73.4c0-0.9,0.2-1.7,0.7-2.4c0.3-0.4,0.7-0.7,1.1-1l1.1-0.3
	c0.2,0,0.3,0,0.5,0c1.1,0,2,0.5,2.9,1.4l0.1,0.1l17.3,22.7l17.1-22.7l0.1-0.1c0.9-1,1.9-1.5,3.3-1.4c2.2,0.5,3,1.2,3,3.7V436
	c0,1-0.3,1.8-0.9,2.4v0c-0.6,0.7-1.5,1.1-2.5,1.1c-2.3,0-3.5-1.2-3.5-3.5v-40.3l-13.6,17.9l0,0c-0.3,0.4-0.7,0.8-1.1,1.1l0,0
	c-0.6,0.4-1.2,0.6-1.9,0.6c-0.7,0-1.3-0.2-1.9-0.6c-0.3-0.2-0.7-0.6-1-1l0,0l-13.9-18V459.2z"/>
<path fill="#2B2A29" d="M171.9,368.6L171.9,368.6c2,0,3.7,1.6,3.7,3.7v15.3c0,2-1.7,3.7-3.7,3.7h0c-2,0-3.7-1.6-3.7-3.7v-15.3
	C168.2,370.2,169.9,368.6,171.9,368.6"/>
</svg>
